<svg width="64" height="64" viewBox="0 0 64 64" fill="none" xmlns="http://www.w3.org/2000/svg">
<path d="M63 61H1C0.734784 61 0.48043 60.8946 0.292893 60.7071C0.105357 60.5196 0 60.2652 0 60V54C0 53.7348 0.105357 53.4804 0.292893 53.2929C0.48043 53.1054 0.734784 53 1 53H63C63.2652 53 63.5196 53.1054 63.7071 53.2929C63.8946 53.4804 64 53.7348 64 54V60C64 60.2652 63.8946 60.5196 63.7071 60.7071C63.5196 60.8946 63.2652 61 63 61ZM2 59H62V55H2V59Z" fill="url(#paint0_linear_1449_7835)"/>
<path d="M14 55H3C2.73478 55 2.48043 54.8946 2.29289 54.7071C2.10536 54.5196 2 54.2652 2 54V39C2 38.7348 2.10536 38.4804 2.29289 38.2929C2.48043 38.1054 2.73478 38 3 38H14C14.2652 38 14.5196 38.1054 14.7071 38.2929C14.8946 38.4804 15 38.7348 15 39V54C15 54.2652 14.8946 54.5196 14.7071 54.7071C14.5196 54.8946 14.2652 55 14 55ZM4 53H13V40H4V53Z" fill="url(#paint1_linear_1449_7835)"/>
<path d="M30 55H19C18.7348 55 18.4804 54.8946 18.2929 54.7071C18.1054 54.5196 18 54.2652 18 54V34C18 33.7348 18.1054 33.4804 18.2929 33.2929C18.4804 33.1054 18.7348 33 19 33H30C30.2652 33 30.5196 33.1054 30.7071 33.2929C30.8946 33.4804 31 33.7348 31 34V54C31 54.2652 30.8946 54.5196 30.7071 54.7071C30.5196 54.8946 30.2652 55 30 55ZM20 53H29V35H20V53Z" fill="url(#paint2_linear_1449_7835)"/>
<path d="M46 55H35C34.7348 55 34.4804 54.8946 34.2929 54.7071C34.1054 54.5196 34 54.2652 34 54V28C34 27.7348 34.1054 27.4804 34.2929 27.2929C34.4804 27.1054 34.7348 27 35 27H46C46.2652 27 46.5196 27.1054 46.7071 27.2929C46.8946 27.4804 47 27.7348 47 28V54C47 54.2652 46.8946 54.5196 46.7071 54.7071C46.5196 54.8946 46.2652 55 46 55ZM36 53H45V29H36V53Z" fill="url(#paint3_linear_1449_7835)"/>
<path d="M63 55H52C51.7348 55 51.4804 54.8946 51.2929 54.7071C51.1054 54.5196 51 54.2652 51 54V22C51 21.7348 51.1054 21.4804 51.2929 21.2929C51.4804 21.1054 51.7348 21 52 21H63C63.2652 21 63.5196 21.1054 63.7071 21.2929C63.8946 21.4804 64 21.7348 64 22V54C64 54.2652 63.8946 54.5196 63.7071 54.7071C63.5196 54.8946 63.2652 55 63 55ZM53 53H62V23H53V53Z" fill="url(#paint4_linear_1449_7835)"/>
<path d="M14 45H3C2.73478 45 2.48043 44.8946 2.29289 44.7071C2.10536 44.5196 2 44.2652 2 44C2 43.7348 2.10536 43.4804 2.29289 43.2929C2.48043 43.1054 2.73478 43 3 43H14C14.2652 43 14.5196 43.1054 14.7071 43.2929C14.8946 43.4804 15 43.7348 15 44C15 44.2652 14.8946 44.5196 14.7071 44.7071C14.5196 44.8946 14.2652 45 14 45Z" fill="url(#paint5_linear_1449_7835)"/>
<path d="M46 33H35C34.7348 33 34.4804 32.8946 34.2929 32.7071C34.1054 32.5196 34 32.2652 34 32C34 31.7348 34.1054 31.4804 34.2929 31.2929C34.4804 31.1054 34.7348 31 35 31H46C46.2652 31 46.5196 31.1054 46.7071 31.2929C46.8946 31.4804 47 31.7348 47 32C47 32.2652 46.8946 32.5196 46.7071 32.7071C46.5196 32.8946 46.2652 33 46 33Z" fill="url(#paint6_linear_1449_7835)"/>
<path d="M63 27H52C51.7348 27 51.4804 26.8946 51.2929 26.7071C51.1054 26.5196 51 26.2652 51 26C51 25.7348 51.1054 25.4804 51.2929 25.2929C51.4804 25.1054 51.7348 25 52 25H63C63.2652 25 63.5196 25.1054 63.7071 25.2929C63.8946 25.4804 64 25.7348 64 26C64 26.2652 63.8946 26.5196 63.7071 26.7071C63.5196 26.8946 63.2652 27 63 27Z" fill="url(#paint7_linear_1449_7835)"/>
<path d="M30 39H19C18.7348 39 18.4804 38.8946 18.2929 38.7071C18.1054 38.5196 18 38.2652 18 38C18 37.7348 18.1054 37.4804 18.2929 37.2929C18.4804 37.1054 18.7348 37 19 37H30C30.2652 37 30.5196 37.1054 30.7071 37.2929C30.8946 37.4804 31 37.7348 31 38C31 38.2652 30.8946 38.5196 30.7071 38.7071C30.5196 38.8946 30.2652 39 30 39Z" fill="url(#paint8_linear_1449_7835)"/>
<path d="M2 35C1.78059 34.9991 1.56755 34.9261 1.39372 34.7923C1.21989 34.6584 1.09491 34.471 1.03806 34.2591C0.981207 34.0472 0.99563 33.8225 1.07911 33.6196C1.16258 33.4166 1.31048 33.2468 1.5 33.1362L13.5 26.1362C13.6518 26.0477 13.8243 26.0007 14 26H24.5863L33.2925 17.2925C33.3854 17.1997 33.4958 17.1261 33.6171 17.0759C33.7385 17.0257 33.8686 16.9999 34 17H47C47.2652 17 47.5196 17.1054 47.7071 17.2929C47.8946 17.4804 48 17.7348 48 18C48 18.2652 47.8946 18.5196 47.7071 18.7071C47.5196 18.8946 47.2652 19 47 19H34.4137L25.7075 27.7075C25.6146 27.8003 25.5042 27.8739 25.3829 27.9241C25.2615 27.9743 25.1314 28.0001 25 28H14.27L2.5 34.8638C2.3482 34.9523 2.17574 34.9993 2 35Z" fill="url(#paint9_linear_1449_7835)"/>
<path d="M42.9998 23C42.7925 23.0002 42.5902 22.9359 42.421 22.816C42.2518 22.6962 42.1241 22.5267 42.0554 22.3311C41.9868 22.1354 41.9806 21.9233 42.0379 21.724C42.0951 21.5247 42.2128 21.3482 42.3748 21.2188L46.3986 18L42.3748 14.7812C42.2722 14.6992 42.1868 14.5977 42.1234 14.4826C42.06 14.3675 42.0199 14.2411 42.0054 14.1105C41.9761 13.8468 42.0528 13.5822 42.2186 13.375C42.3843 13.1678 42.6256 13.0349 42.8893 13.0056C43.0199 12.9911 43.1521 13.0025 43.2783 13.039C43.4045 13.0756 43.5222 13.1367 43.6248 13.2187L48.6248 17.2187C48.7421 17.3124 48.8367 17.4313 48.9018 17.5665C48.9668 17.7018 49.0006 17.8499 49.0006 18C49.0006 18.1501 48.9668 18.2982 48.9018 18.4335C48.8367 18.5687 48.7421 18.6876 48.6248 18.7812L43.6248 22.7812C43.4474 22.923 43.2269 23.0002 42.9998 23Z" fill="url(#paint10_linear_1449_7835)"/>
<path d="M57.9998 12H45.9998C45.8359 12.0003 45.6744 11.9603 45.5296 11.8835C45.3848 11.8067 45.2611 11.6956 45.1694 11.5597C45.0776 11.4239 45.0207 11.2676 45.0035 11.1046C44.9864 10.9416 45.0096 10.7769 45.071 10.625L46.9223 6L45.071 1.375C45.0096 1.22307 44.9864 1.05836 45.0035 0.89536C45.0207 0.732365 45.0776 0.576084 45.1694 0.440268C45.2611 0.304453 45.3848 0.193267 45.5296 0.116495C45.6744 0.0397234 45.8359 -0.000281359 45.9998 1.4895e-06H57.9998C58.265 1.4895e-06 58.5193 0.105358 58.7069 0.292895C58.8944 0.480431 58.9998 0.734785 58.9998 1V11C58.9998 11.2652 58.8944 11.5196 58.7069 11.7071C58.5193 11.8946 58.265 12 57.9998 12ZM47.4773 10H56.9998V2H47.4773L48.9285 5.625C49.0238 5.86333 49.0238 6.12917 48.9285 6.3675L47.4773 10Z" fill="url(#paint11_linear_1449_7835)"/>
<path d="M58 23C57.7348 23 57.4804 22.8946 57.2929 22.7071C57.1054 22.5196 57 22.2652 57 22V5C57 4.73478 57.1054 4.48043 57.2929 4.29289C57.4804 4.10536 57.7348 4 58 4C58.2652 4 58.5196 4.10536 58.7071 4.29289C58.8946 4.48043 59 4.73478 59 5V22C59 22.2652 58.8946 22.5196 58.7071 22.7071C58.5196 22.8946 58.2652 23 58 23Z" fill="url(#paint12_linear_1449_7835)"/>
<path d="M21 58H1C0.734784 58 0.48043 57.8946 0.292893 57.7071C0.105357 57.5196 0 57.2652 0 57C0 56.7348 0.105357 56.4804 0.292893 56.2929C0.48043 56.1054 0.734784 56 1 56H21C21.2652 56 21.5196 56.1054 21.7071 56.2929C21.8946 56.4804 22 56.7348 22 57C22 57.2652 21.8946 57.5196 21.7071 57.7071C21.5196 57.8946 21.2652 58 21 58Z" fill="url(#paint13_linear_1449_7835)"/>
<path d="M26 57C26 55.7725 27.75 55.6562 27.98 56.805C28.2725 58.1637 26 58.54 26 57Z" fill="url(#paint14_linear_1449_7835)"/>
<defs>
<linearGradient id="paint0_linear_1449_7835" x1="48.8418" y1="46.8333" x2="48.7142" y2="63.6123" gradientUnits="userSpaceOnUse">
<stop offset="0.0056" stop-color="#091E46"/>
<stop offset="1" stop-color="#075FF3"/>
</linearGradient>
<linearGradient id="paint1_linear_1449_7835" x1="11.921" y1="24.8957" x2="9.10183" y2="60.3289" gradientUnits="userSpaceOnUse">
<stop offset="0.0056" stop-color="#091E46"/>
<stop offset="1" stop-color="#075FF3"/>
</linearGradient>
<linearGradient id="paint2_linear_1449_7835" x1="27.921" y1="16.0415" x2="23.2196" y2="61.7024" gradientUnits="userSpaceOnUse">
<stop offset="0.0056" stop-color="#091E46"/>
<stop offset="1" stop-color="#075FF3"/>
</linearGradient>
<linearGradient id="paint3_linear_1449_7835" x1="43.921" y1="5.41646" x2="36.3547" y2="63.1549" gradientUnits="userSpaceOnUse">
<stop offset="0.0056" stop-color="#091E46"/>
<stop offset="1" stop-color="#075FF3"/>
</linearGradient>
<linearGradient id="paint4_linear_1449_7835" x1="60.921" y1="-5.20859" x2="49.8532" y2="64.3452" gradientUnits="userSpaceOnUse">
<stop offset="0.0056" stop-color="#091E46"/>
<stop offset="1" stop-color="#075FF3"/>
</linearGradient>
<linearGradient id="paint5_linear_1449_7835" x1="11.921" y1="41.4583" x2="11.8817" y2="45.6529" gradientUnits="userSpaceOnUse">
<stop offset="0.0056" stop-color="#091E46"/>
<stop offset="1" stop-color="#075FF3"/>
</linearGradient>
<linearGradient id="paint6_linear_1449_7835" x1="43.921" y1="29.4583" x2="43.8817" y2="33.6529" gradientUnits="userSpaceOnUse">
<stop offset="0.0056" stop-color="#091E46"/>
<stop offset="1" stop-color="#075FF3"/>
</linearGradient>
<linearGradient id="paint7_linear_1449_7835" x1="60.921" y1="23.4583" x2="60.8817" y2="27.6529" gradientUnits="userSpaceOnUse">
<stop offset="0.0056" stop-color="#091E46"/>
<stop offset="1" stop-color="#075FF3"/>
</linearGradient>
<linearGradient id="paint8_linear_1449_7835" x1="27.921" y1="35.4583" x2="27.8817" y2="39.6529" gradientUnits="userSpaceOnUse">
<stop offset="0.0056" stop-color="#091E46"/>
<stop offset="1" stop-color="#075FF3"/>
</linearGradient>
<linearGradient id="paint9_linear_1449_7835" x1="36.8691" y1="3.12487" x2="35.9898" y2="40.8594" gradientUnits="userSpaceOnUse">
<stop offset="0.0056" stop-color="#091E46"/>
<stop offset="1" stop-color="#075FF3"/>
</linearGradient>
<linearGradient id="paint10_linear_1449_7835" x1="47.3423" y1="5.29073" x2="45.5331" y2="26.1095" gradientUnits="userSpaceOnUse">
<stop offset="0.0056" stop-color="#091E46"/>
<stop offset="1" stop-color="#075FF3"/>
</linearGradient>
<linearGradient id="paint11_linear_1449_7835" x1="55.6835" y1="-9.25009" x2="54.3746" y2="15.8516" gradientUnits="userSpaceOnUse">
<stop offset="0.0056" stop-color="#091E46"/>
<stop offset="1" stop-color="#075FF3"/>
</linearGradient>
<linearGradient id="paint12_linear_1449_7835" x1="58.5263" y1="-10.646" x2="41.26" y2="19.2266" gradientUnits="userSpaceOnUse">
<stop offset="0.0056" stop-color="#091E46"/>
<stop offset="1" stop-color="#075FF3"/>
</linearGradient>
<linearGradient id="paint13_linear_1449_7835" x1="16.7894" y1="54.4583" x2="16.7662" y2="58.6532" gradientUnits="userSpaceOnUse">
<stop offset="0.0056" stop-color="#091E46"/>
<stop offset="1" stop-color="#075FF3"/>
</linearGradient>
<linearGradient id="paint14_linear_1449_7835" x1="27.5309" y1="54.4718" x2="27.2793" y2="58.6356" gradientUnits="userSpaceOnUse">
<stop offset="0.0056" stop-color="#091E46"/>
<stop offset="1" stop-color="#075FF3"/>
</linearGradient>
</defs>
</svg>
