<svg width="50" height="50" viewBox="0 0 50 50" fill="none" xmlns="http://www.w3.org/2000/svg">
<path d="M35.417 22.5093C35.417 21.7892 35.417 21.4292 35.5254 21.1083C35.8404 20.1759 36.6707 19.8141 37.5026 19.4352C38.4378 19.0092 38.9054 18.7962 39.3687 18.7587C39.8947 18.7162 40.4216 18.8295 40.8712 19.0818C41.4671 19.4163 41.8829 20.0519 42.3084 20.5688C44.2738 22.9559 45.2564 24.1495 45.616 25.4657C45.9062 26.5279 45.9062 27.6387 45.616 28.7009C45.0916 30.6207 43.4347 32.2299 42.2082 33.7196C41.5809 34.4816 41.2672 34.8626 40.8712 35.0848C40.4216 35.3371 39.8947 35.4505 39.3687 35.4079C38.9054 35.3704 38.4378 35.1575 37.5026 34.7315C36.6707 34.3526 35.8404 33.9907 35.5254 33.0584C35.417 32.7374 35.417 32.3774 35.417 31.6574V22.5093Z" stroke="url(#paint0_linear_1375_8050)" stroke-width="3.125"/>
<path d="M14.5835 22.5091C14.5835 21.6024 14.558 20.7874 13.825 20.1499C13.5583 19.918 13.2049 19.757 12.4979 19.435C11.5627 19.0091 11.0951 18.7961 10.6317 18.7586C9.24165 18.6462 8.49374 19.5949 7.69209 20.5686C5.72672 22.9558 4.74404 24.1494 4.38446 25.4656C4.09428 26.5278 4.09428 27.6386 4.38446 28.7008C4.90892 30.6206 6.56583 32.2298 7.79227 33.7194C8.56534 34.6584 9.30385 35.5152 10.6317 35.4078C11.0951 35.3703 11.5627 35.1573 12.4979 34.7314C13.2049 34.4093 13.5583 34.2483 13.825 34.0165C14.558 33.3789 14.5835 32.564 14.5835 31.6572V22.5091Z" stroke="url(#paint1_linear_1375_8050)" stroke-width="3.125"/>
<path d="M10.417 18.75C10.417 11.8464 16.9462 6.25 25.0003 6.25C33.0545 6.25 39.5837 11.8464 39.5837 18.75" stroke="url(#paint2_linear_1375_8050)" stroke-width="3.125" stroke-linecap="square" stroke-linejoin="round"/>
<path d="M39.5835 35.4167V37.0834C39.5835 40.7653 35.8525 43.7501 31.2502 43.7501H27.0835" stroke="url(#paint3_linear_1375_8050)" stroke-width="3.125" stroke-linecap="round" stroke-linejoin="round"/>
<defs>
<linearGradient id="paint0_linear_1375_8050" x1="43.3665" y1="5.90265" x2="39.9954" y2="40.5328" gradientUnits="userSpaceOnUse">
<stop offset="0.0056" stop-color="#091E46"/>
<stop offset="1" stop-color="#075FF3"/>
</linearGradient>
<linearGradient id="paint1_linear_1375_8050" x1="6.63398" y1="5.90161" x2="10.0054" y2="40.5332" gradientUnits="userSpaceOnUse">
<stop offset="0.0056" stop-color="#091E46"/>
<stop offset="1" stop-color="#075FF3"/>
</linearGradient>
<linearGradient id="paint2_linear_1375_8050" x1="32.6756" y1="-3.38551" x2="31.9924" y2="22.8154" gradientUnits="userSpaceOnUse">
<stop offset="0.0056" stop-color="#091E46"/>
<stop offset="1" stop-color="#075FF3"/>
</linearGradient>
<linearGradient id="paint3_linear_1375_8050" x1="36.6229" y1="28.9931" x2="35.9151" y2="46.4435" gradientUnits="userSpaceOnUse">
<stop offset="0.0056" stop-color="#091E46"/>
<stop offset="1" stop-color="#075FF3"/>
</linearGradient>
</defs>
</svg>
